# xmcd CD database file
#
# Track frame offsets:
#	150
#	26694
#	63936
#	135695
#	147087
#	177091
#	242829
#
# Disc length: 3541 seconds
#
# Revision: 4
# Processed by: cddbd v1.5.2PL0 Copyright (c) Steve Scherf et al.
# Submitted via: CDex 1.51
#
DISCID=5c0dd307
DTITLE=B.B. KING - B.B. King Live(When Love Comes To Town)
DYEAR=1992
DGENRE=Blues
TTITLE0=Back In L.A.
TTITLE1=Chains Of Love
TTITLE2=Nobody Loves Me But My Mother
TTITLE3=Please Accept My Love
TTITLE4=The Thrill Is Gone
TTITLE5=The Blues Comes Over Me
TTITLE6=When love comes to town
EXTD=YEAR: 1992
EXTT0=
EXTT1=
EXTT2=
EXTT3=
EXTT4=
EXTT5=
EXTT6=
PLAYORDER=
